HIERARCHY
ROOT Hips
{
  OFFSET -1.83323 97.8437 -19.541
  CHANNELS 6 Xposition Yposition Zposition Zrotation Xrotation Yrotation
  JOINT LeftUpLeg
  {
    OFFSET 8.64259 1.95398 -2.38835
    CHANNELS 6 Xposition Yposition Zposition Zrotation Xrotation Yrotation
    JOINT LeftLeg
    {
      OFFSET 43.7702 0 0
      CHANNELS 6 Xposition Yposition Zposition Zrotation Xrotation Yrotation
      JOINT LeftFoot
      {
        OFFSET 40.6238 0 0
        CHANNELS 6 Xposition Yposition Zposition Zrotation Xrotation Yrotation
        JOINT LeftToeBase
        {
          OFFSET 12.7242 0 0
          CHANNELS 6 Xposition Yposition Zposition Zrotation Xrotation Yrotation
          End Site
          {
            OFFSET 0 0 0
          }
        }
      }
    }
  }
  JOINT RightUpLeg
  {
    OFFSET -8.2249 1.95398 -2.59336
    CHANNELS 6 Xposition Yposition Zposition Zrotation Xrotation Yrotation
    JOINT RightLeg
    {
      OFFSET 43.5653 0 0
      CHANNELS 6 Xposition Yposition Zposition Zrotation Xrotation Yrotation
      JOINT RightFoot
      {
        OFFSET 40.6238 0 0
        CHANNELS 6 Xposition Yposition Zposition Zrotation Xrotation Yrotation
        JOINT RightToeBase
        {
          OFFSET 12.7242 0 0
          CHANNELS 6 Xposition Yposition Zposition Zrotation Xrotation Yrotation
          End Site
          {
            OFFSET 0 0 0
          }
        }
      }
    }
  }
  JOINT Spine
  {
    OFFSET 0.165834 0.87714 6.61349
    CHANNELS 6 Xposition Yposition Zposition Zrotation Xrotation Yrotation
    JOINT Spine1
    {
      OFFSET 7.38963 1.71661e-005 0
      CHANNELS 6 Xposition Yposition Zposition Zrotation Xrotation Yrotation
      JOINT Spine2
      {
        OFFSET 11.9445 1.14441e-005 0
        CHANNELS 6 Xposition Yposition Zposition Zrotation Xrotation Yrotation
        JOINT Spine3
        {
          OFFSET 14.7254 4.19617e-005 0
          CHANNELS 6 Xposition Yposition Zposition Zrotation Xrotation Yrotation
          JOINT Spine4
          {
            OFFSET 10.9679 0 0
            CHANNELS 6 Xposition Yposition Zposition Zrotation Xrotation Yrotation
            JOINT RightShoulder
            {
              OFFSET 2.46616 -1.6653 3.69651
              CHANNELS 6 Xposition Yposition Zposition Zrotation Xrotation Yrotation
              JOINT RightArm
              {
                OFFSET 13.0012 0 0
                CHANNELS 6 Xposition Yposition Zposition Zrotation Xrotation Yrotation
                JOINT RightForeArm
                {
                  OFFSET 28.7848 1.52588e-005 0
                  CHANNELS 6 Xposition Yposition Zposition Zrotation Xrotation Yrotation
                  JOINT RightHand
                  {
                    OFFSET 26.5688 1.52588e-005 0
                    CHANNELS 6 Xposition Yposition Zposition Zrotation Xrotation Yrotation
                    JOINT RightHandMiddle1
                    {
                      OFFSET 8.03675 -0.886581 0.727868
                      CHANNELS 6 Xposition Yposition Zposition Zrotation Xrotation Yrotation
                      JOINT RightHandMiddle2
                      {
                        OFFSET 2.78833 0 0
                        CHANNELS 6 Xposition Yposition Zposition Zrotation Xrotation Yrotation
                        JOINT RightHandMiddle3
                        {
                          OFFSET 2.41155 0 0
                          CHANNELS 6 Xposition Yposition Zposition Zrotation Xrotation Yrotation
                          End Site
                          {
                            OFFSET 0 0 0
                          }
                        }
                      }
                    }
                    JOINT RightHandRing1
                    {
                      OFFSET 7.97966 -0.886765 -1.00486
                      CHANNELS 6 Xposition Yposition Zposition Zrotation Xrotation Yrotation
                      JOINT RightHandRing2
                      {
                        OFFSET 2.86368 0 0
                        CHANNELS 6 Xposition Yposition Zposition Zrotation Xrotation Yrotation
                        JOINT RightHandRing3
                        {
                          OFFSET 2.11079 0 0
                          CHANNELS 6 Xposition Yposition Zposition Zrotation Xrotation Yrotation
                          End Site
                          {
                            OFFSET 0 0 0
                          }
                        }
                      }
                    }
                    JOINT RightHandPinky1
                    {
                      OFFSET 8.03707 -0.887528 -2.60696
                      CHANNELS 6 Xposition Yposition Zposition Zrotation Xrotation Yrotation
                      JOINT RightHandPinky2
                      {
                        OFFSET 1.84628 0 0
                        CHANNELS 6 Xposition Yposition Zposition Zrotation Xrotation Yrotation
                        JOINT RightHandPinky3
                        {
                          OFFSET 1.88434 0 0
                          CHANNELS 6 Xposition Yposition Zposition Zrotation Xrotation Yrotation
                          End Site
                          {
                            OFFSET 0 0 0
                          }
                        }
                      }
                    }
                    JOINT RightHandIndex1
                    {
                      OFFSET 7.92262 -0.885498 2.31175
                      CHANNELS 6 Xposition Yposition Zposition Zrotation Xrotation Yrotation
                      JOINT RightHandIndex2
                      {
                        OFFSET 2.63761 0 0
                        CHANNELS 6 Xposition Yposition Zposition Zrotation Xrotation Yrotation
                        JOINT RightHandIndex3
                        {
                          OFFSET 2.16656 0 0
                          CHANNELS 6 Xposition Yposition Zposition Zrotation Xrotation Yrotation
                          End Site
                          {
                            OFFSET 0 0 0
                          }
                        }
                      }
                    }
                    JOINT RightHandThumb1
                    {
                      OFFSET 3.4769 0.0597992 2.88789
                      CHANNELS 6 Xposition Yposition Zposition Zrotation Xrotation Yrotation
                      JOINT RightHandThumb2
                      {
                        OFFSET 2.77686 9.72748e-005 -1.52588e-005
                        CHANNELS 6 Xposition Yposition Zposition Zrotation Xrotation Yrotation
                        JOINT RightHandThumb3
                        {
                          OFFSET 2.42058 -9.15528e-005 0
                          CHANNELS 6 Xposition Yposition Zposition Zrotation Xrotation Yrotation
                          End Site
                          {
                            OFFSET 0 0 0
                          }
                        }
                      }
                    }
                  }
                }
              }
            }
            JOINT LeftShoulder
            {
              OFFSET 2.38034 -1.29275 -3.7523
              CHANNELS 6 Xposition Yposition Zposition Zrotation Xrotation Yrotation
              JOINT LeftArm
              {
                OFFSET 16.3182 6.10352e-005 0
                CHANNELS 6 Xposition Yposition Zposition Zrotation Xrotation Yrotation
                JOINT LeftForeArm
                {
                  OFFSET 27.0901 0 0
                  CHANNELS 6 Xposition Yposition Zposition Zrotation Xrotation Yrotation
                  JOINT LeftHand
                  {
                    OFFSET 24.5451 1.52588e-005 0
                    CHANNELS 6 Xposition Yposition Zposition Zrotation Xrotation Yrotation
                    JOINT LeftHandMiddle1
                    {
                      OFFSET 9.21802 0.665817 0.545532
                      CHANNELS 6 Xposition Yposition Zposition Zrotation Xrotation Yrotation
                      JOINT LeftHandMiddle2
                      {
                        OFFSET 2.66255 0 0
                        CHANNELS 6 Xposition Yposition Zposition Zrotation Xrotation Yrotation
                        JOINT LeftHandMiddle3
                        {
                          OFFSET 2.2804 0 0
                          CHANNELS 6 Xposition Yposition Zposition Zrotation Xrotation Yrotation
                          End Site
                          {
                            OFFSET 0 0 0
                          }
                        }
                      }
                    }
                    JOINT LeftHandRing1
                    {
                      OFFSET 9.24775 0.665192 -1.1267
                      CHANNELS 6 Xposition Yposition Zposition Zrotation Xrotation Yrotation
                      JOINT LeftHandRing2
                      {
                        OFFSET 2.47041 0 -1.52588e-005
                        CHANNELS 6 Xposition Yposition Zposition Zrotation Xrotation Yrotation
                        JOINT LeftHandRing3
                        {
                          OFFSET 2.2054 0 0
                          CHANNELS 6 Xposition Yposition Zposition Zrotation Xrotation Yrotation
                          End Site
                          {
                            OFFSET 0 0 0
                          }
                        }
                      }
                    }
                    JOINT LeftHandPinky1
                    {
                      OFFSET 9.35384 0.66301 -2.72332
                      CHANNELS 6 Xposition Yposition Zposition Zrotation Xrotation Yrotation
                      JOINT LeftHandPinky2
                      {
                        OFFSET 1.63407 0 0
                        CHANNELS 6 Xposition Yposition Zposition Zrotation Xrotation Yrotation
                        JOINT LeftHandPinky3
                        {
                          OFFSET 1.71176 0 0
                          CHANNELS 6 Xposition Yposition Zposition Zrotation Xrotation Yrotation
                          End Site
                          {
                            OFFSET 0 0 0
                          }
                        }
                      }
                    }
                    JOINT LeftHandIndex1
                    {
                      OFFSET 8.73161 0.675903 2.06801
                      CHANNELS 6 Xposition Yposition Zposition Zrotation Xrotation Yrotation
                      JOINT LeftHandIndex2
                      {
                        OFFSET 2.66689 0 0
                        CHANNELS 6 Xposition Yposition Zposition Zrotation Xrotation Yrotation
                        JOINT LeftHandIndex3
                        {
                          OFFSET 2.12946 0 1.52588e-005
                          CHANNELS 6 Xposition Yposition Zposition Zrotation Xrotation Yrotation
                          End Site
                          {
                            OFFSET 0 0 0
                          }
                        }
                      }
                    }
                    JOINT LeftHandThumb1
                    {
                      OFFSET 4.96735 -0.62265 3.39586
                      CHANNELS 6 Xposition Yposition Zposition Zrotation Xrotation Yrotation
                      JOINT LeftHandThumb2
                      {
                        OFFSET 2.15386 1.52588e-005 0
                        CHANNELS 6 Xposition Yposition Zposition Zrotation Xrotation Yrotation
                        JOINT LeftHandThumb3
                        {
                          OFFSET 2.19511 -3.43323e-005 1.52588e-005
                          CHANNELS 6 Xposition Yposition Zposition Zrotation Xrotation Yrotation
                          End Site
                          {
                            OFFSET 0 0 0
                          }
                        }
                      }
                    }
                  }
                }
              }
            }
            JOINT Neck
            {
              OFFSET 5.0226 -0.0266342 0
              CHANNELS 6 Xposition Yposition Zposition Zrotation Xrotation Yrotation
              JOINT Head
              {
                OFFSET 6.69364 2.86102e-005 0
                CHANNELS 6 Xposition Yposition Zposition Zrotation Xrotation Yrotation
                End Site
                {
                  OFFSET 0 0 0
                }
              }
            }
          }
        }
      }
    }
  }
}
MOTION
Frames:	4
Frame Time:	0.0333333
-1.83298 97.8449 -19.5414 29.4326 -89.9987 29.4985 8.64259 1.95398 -2.38835 -171.15 3.0966 94.2266 43.7702 7.03335e-006 0 -8.77029 8.8633 0.47237 40.6238 1.43051e-006 9.53674e-007 63.2804 1.90384 1.00586 12.7242 2.38419e-006 9.53674e-007 28.7808 5.85017e-006 9.49327e-006 -8.2249 1.95398 -2.59336 178.568 1.90796 87.5615 43.5653 7.27177e-006 0 -7.50089 -1.35474 -0.0818677 40.6238 2.38419e-006 9.53674e-007 62.6809 -1.31951 -0.668989 12.7242 -4.76837e-007 1.77636e-015 28.7808 1.28587e-005 2.52732e-005 0.165834 0.87714 6.61349 0.00549415 6.3395 -90.0663 7.38963 1.71661e-005 -9.72809e-008 14.1949 0.00936527 -0.00627033 11.9445 1.14441e-005 6.65395e-008 2.52399 0.00940173 -0.00639545 14.7254 4.19617e-005 8.195e-008 -20.0112 0.00468788 0.00399014 10.9679 -9.53674e-006 5.82672e-008 0.00148234 0.00469054 0.00397689 2.46616 -1.6653 3.69651 100.82 -18.213 -85.5338 13.0012 0 3.55271e-015 6.96764 44.5416 -25.066 28.7848 1.52588e-005 -1.19209e-007 -5.96124 0.333802 -3.37235 26.5688 1.52588e-005 4.76837e-007 -5.37983 -0.320002 -0.0162416 8.03675 -0.886581 0.727868 -89.4039 88.9709 89.0936 2.78833 2.38419e-007 0 -0.0604872 7.38885e-006 -6.00701e-007 2.41155 -1.42109e-014 0 -0.0639216 4.49542e-006 -7.75987e-007 7.97966 -0.886765 -1.00486 -89.3952 88.9811 89.085 2.86368 0 -1.42109e-014 -1.15742 -7.78847e-006 -3.11614e-007 2.11079 0 0 2.576 -1.10766e-007 -5.91114e-007 8.03707 -0.887528 -2.60696 -88.8572 89.3579 88.547 1.84628 0 0 -1.14578 -2.03913e-006 1.20509e-008 1.88434 -1.42109e-014 0 1.14577 2.27976e-006 -3.86331e-007 7.92262 -0.885498 2.31175 -89.423 88.9487 89.1127 2.63761 4.76837e-007 1.42109e-014 0.409287 1.30762e-005 0.000493759 2.16656 -2.38419e-007 -1.42109e-014 -0.636601 -1.19723e-006 -4.40355e-007 3.4769 0.0597992 2.88789 104.364 40.5023 -88.8246 2.77686 9.72748e-005 -1.52588e-005 -7.66903 0.186174 -1.35044 2.42058 -9.15528e-005 0 -11.2634 -3.66591e-006 7.15972e-005 2.38034 -1.29275 -3.7523 -78.9451 -20.6558 94.3577 16.3182 6.10352e-005 1.19209e-007 10.2897 -41.4504 -12.8109 27.0901 0 0 3.07119 42.123 -5.93186 24.5451 1.52588e-005 0 -0.861622 -0.0319375 0.0711683 9.21802 0.665817 0.545532 -91.1873 -87.8289 -89.9988 2.66255 0 -2.84217e-014 3.40888 -5.03281e-006 0.00314027 2.2804 0 2.84217e-014 -0.95486 7.23609e-006 1.56598e-007 9.24775 0.665192 -1.1267 -91.1871 -89.4015 -89.9985 2.47041 -4.76837e-007 -1.52588e-005 2.85636 -3.25746e-006 0.00277658 2.2054 -3.55271e-015 0 -3.16844 3.79124e-006 1.13797e-007 9.35384 0.66301 -2.72332 88.8084 -89.7171 89.9969 1.63407 -4.76837e-007 2.84217e-014 2.54481 6.53619e-006 0.00240266 1.71176 0 2.84217e-014 -2.54482 -1.10601e-005 -9.60055e-007 8.73161 0.675903 2.06801 -91.1883 -86.1973 -89.9998 2.66689 -9.53674e-007 -5.68434e-014 6.13104 6.76994e-006 0.00628628 2.12946 1.04308e-007 1.52588e-005 -2.04542 -8.09014e-006 -2.92422e-007 4.96735 -0.62265 3.39586 -101.949 -40.7242 -90.0694 2.15386 1.52588e-005 2.84217e-014 10.0172 -8.04142e-006 -7.77535e-006 2.19511 -3.43323e-005 1.52588e-005 -2.66976 1.18472e-005 2.6027e-006 5.0226 -0.0266342 -9.09717e-013 1.73519 -0.00199139 0.00387416 6.69364 2.86102e-005 -1.09447e-007 -7.41058 -0.00248444 -0.00542842 
-1.82988 97.8623 -19.5473 -44.468 -89.972 -44.383 8.64259 1.95398 -2.38835 -171.156 3.06524 94.2375 43.7702 7.03335e-006 0 -8.6668 8.82384 0.472438 40.6238 1.43051e-006 9.53674e-007 63.2276 1.91518 1.01388 12.7242 2.38419e-006 9.53674e-007 28.7808 5.85017e-006 9.49327e-006 -8.2249 1.95398 -2.59336 178.547 1.6163 87.5776 43.5653 7.27177e-006 1.77636e-015 -6.84948 -1.41083 -0.0818697 40.6238 2.38419e-006 9.53674e-007 62.3641 -1.32558 -0.666473 12.7242 -4.76837e-007 0 28.7808 1.28587e-005 2.52732e-005 0.165834 0.87714 6.61349 0.0107531 6.32785 -90.0862 7.38963 1.71661e-005 -9.72809e-008 14.2182 0.00936527 -0.00627033 11.9445 1.14441e-005 6.65395e-008 2.54727 0.00940173 -0.00639545 14.7254 4.19617e-005 8.195e-008 -19.9879 0.00468788 0.0040041 10.9679 -9.53674e-006 5.82672e-008 0.0247653 0.00469054 0.00399122 2.46616 -1.6653 3.69651 100.83 -18.1366 -85.538 13.0012 0 0 6.94651 44.5402 -25.0038 28.7848 1.52588e-005 -1.19209e-007 -5.9619 0.333799 -3.38034 26.5688 1.52588e-005 4.76837e-007 -5.37983 -0.320002 -0.0162416 8.03675 -0.886581 0.727868 -89.4039 88.9709 89.0936 2.78833 2.38419e-007 0 -0.0604872 7.38885e-006 -6.00701e-007 2.41155 1.42109e-014 0 -0.0639216 4.49542e-006 -7.75987e-007 7.97966 -0.886765 -1.00486 -89.3952 88.9811 89.085 2.86368 -1.42109e-014 0 -1.15742 -7.78847e-006 -3.11614e-007 2.11079 0 1.42109e-014 2.576 -1.10766e-007 -5.91114e-007 8.03707 -0.887528 -2.60696 -88.8572 89.3579 88.547 1.84628 0 -2.84217e-014 -1.14578 -2.03913e-006 1.20509e-008 1.88434 1.42109e-014 1.42109e-014 1.14577 2.27976e-006 -3.86331e-007 7.92262 -0.885498 2.31175 -89.423 88.9487 89.1127 2.63761 4.76837e-007 -1.42109e-014 0.409287 1.30762e-005 0.000493759 2.16656 -2.38419e-007 1.42109e-014 -0.636601 -1.19723e-006 -4.40355e-007 3.4769 0.0597992 2.88789 104.364 40.5023 -88.8246 2.77686 9.72748e-005 -1.52588e-005 -7.66903 0.186174 -1.35044 2.42058 -9.15528e-005 0 -11.2634 -3.66591e-006 7.15972e-005 2.38034 -1.29275 -3.7523 -78.9452 -20.6363 94.3358 16.3182 6.10352e-005 1.19209e-007 10.2865 -41.4426 -12.7773 27.0901 1.42109e-014 1.42109e-014 3.14424 42.2447 -5.96505 24.5451 1.52588e-005 -3.55271e-015 -1.08043 -0.0409146 0.0284989 9.21802 0.665817 0.545532 -91.1873 -87.8289 -89.9988 2.66255 0 0 3.40888 -5.03281e-006 0.00314027 2.2804 0 -2.84217e-014 -0.95486 7.23609e-006 1.56598e-007 9.24775 0.665192 -1.1267 -91.1871 -89.4015 -89.9985 2.47041 -4.76837e-007 -1.52588e-005 2.85636 -3.25746e-006 0.00277658 2.2054 0 0 -3.16844 3.79124e-006 1.13797e-007 9.35384 0.66301 -2.72332 88.8084 -89.7171 89.9969 1.63407 -4.76837e-007 0 2.54481 6.53619e-006 0.00240266 1.71176 0 2.84217e-014 -2.54482 -1.10601e-005 -9.60055e-007 8.73161 0.675903 2.06801 -91.1883 -86.1973 -89.9998 2.66689 -9.53674e-007 -2.84217e-014 6.13104 6.76994e-006 0.00628628 2.12946 1.04308e-007 1.52588e-005 -2.04542 -8.09014e-006 -2.92422e-007 4.96735 -0.62265 3.39586 -101.949 -40.7242 -90.0694 2.15386 1.52588e-005 0 10.0172 -8.04142e-006 -7.77535e-006 2.19511 -3.43323e-005 1.52588e-005 -2.66976 1.18472e-005 2.6027e-006 5.0226 -0.0266342 -9.09495e-013 1.45251 -0.032408 0.0633933 6.69364 2.86102e-005 -1.09447e-007 -7.42259 -0.0402414 -0.0889241 
-1.83906 97.8632 -19.5474 -30.4623 -89.9538 -30.3717 8.64259 1.95398 -2.38835 -171.156 3.05897 94.2484 43.7702 7.03335e-006 -3.55271e-015 -8.60963 8.80293 0.471958 40.6238 1.43051e-006 9.53674e-007 63.2196 1.86724 0.986974 12.7242 2.38419e-006 9.53674e-007 28.7808 5.85017e-006 9.49327e-006 -8.2249 1.95398 -2.59336 178.545 1.53297 87.5888 43.5653 7.27177e-006 -1.77636e-015 -6.63122 -1.38076 -0.0819993 40.6238 2.38419e-006 9.53674e-007 62.2526 -1.28938 -0.643435 12.7242 -4.76837e-007 -1.77636e-015 28.7808 1.28587e-005 2.52732e-005 0.165834 0.87714 6.61349 0.0119427 6.31976 -90.0939 7.38963 1.71661e-005 -9.72809e-008 14.2344 0.00895826 -0.00627033 11.9445 1.14441e-005 6.65395e-008 2.56348 0.00897311 -0.00639545 14.7254 4.19617e-005 8.195e-008 -19.9717 0.00468788 0.00360569 10.9679 -9.53674e-006 5.82672e-008 0.0409637 0.00469054 0.00359898 2.46616 -1.6653 3.69651 100.863 -18.1191 -85.4394 13.0012 -2.84217e-014 -3.55271e-015 6.98934 44.5233 -25.1402 28.7848 1.52588e-005 -1.19209e-007 -5.92799 0.333789 -3.41013 26.5688 1.52588e-005 4.76837e-007 -5.37983 -0.320002 -0.0162416 8.03675 -0.886581 0.727868 -89.4039 88.9709 89.0936 2.78833 2.38419e-007 0 -0.0604872 7.38885e-006 -6.00701e-007 2.41155 -1.42109e-014 0 -0.0639216 4.49542e-006 -7.75987e-007 7.97966 -0.886765 -1.00486 -89.3952 88.9811 89.085 2.86368 1.42109e-014 0 -1.15742 -7.78847e-006 -3.11614e-007 2.11079 0 1.42109e-014 2.576 -1.10766e-007 -5.91114e-007 8.03707 -0.887528 -2.60696 -88.8572 89.3579 88.547 1.84628 -1.42109e-014 0 -1.14578 -2.03913e-006 1.20509e-008 1.88434 -1.42109e-014 0 1.14577 2.27976e-006 -3.86331e-007 7.92262 -0.885498 2.31175 -89.423 88.9487 89.1127 2.63761 4.76837e-007 0 0.409287 1.30762e-005 0.000493759 2.16656 -2.38419e-007 1.42109e-014 -0.636601 -1.19723e-006 -4.40355e-007 3.4769 0.0597992 2.88789 104.364 40.5023 -88.8246 2.77686 9.72748e-005 -1.52588e-005 -7.66903 0.186174 -1.35044 2.42058 -9.15528e-005 -1.42109e-014 -11.2634 -3.66591e-006 7.15972e-005 2.38034 -1.29275 -3.7523 -78.9403 -20.6518 94.3615 16.3182 6.10352e-005 1.19209e-007 10.3134 -41.4059 -12.7171 27.0901 0 0 3.11844 41.9813 -6.03 24.5451 1.52588e-005 3.55271e-015 -1.08685 -0.0407272 0.0631743 9.21802 0.665817 0.545532 -91.1873 -87.8289 -89.9988 2.66255 0 0 3.40888 -5.03281e-006 0.00314027 2.2804 0 0 -0.95486 7.23609e-006 1.56598e-007 9.24775 0.665192 -1.1267 -91.1871 -89.4015 -89.9985 2.47041 -4.76837e-007 -1.52588e-005 2.85636 -3.25746e-006 0.00277658 2.2054 0 2.84217e-014 -3.16844 3.79124e-006 1.13797e-007 9.35384 0.66301 -2.72332 88.8084 -89.7171 89.9969 1.63407 -4.76837e-007 0 2.54481 6.53619e-006 0.00240266 1.71176 0 0 -2.54482 -1.10601e-005 -9.60055e-007 8.73161 0.675903 2.06801 -91.1883 -86.1973 -89.9998 2.66689 -9.53674e-007 0 6.13104 6.76994e-006 0.00628628 2.12946 1.04308e-007 1.52588e-005 -2.04542 -8.09014e-006 -2.92422e-007 4.96735 -0.62265 3.39586 -101.949 -40.7242 -90.0694 2.15386 1.52588e-005 0 10.0172 -8.04142e-006 -7.77535e-006 2.19511 -3.43323e-005 1.52588e-005 -2.66976 1.18472e-005 2.6027e-006 5.0226 -0.0266342 -9.09495e-013 1.38539 -0.0362006 0.0903495 6.69364 2.86102e-005 -1.09447e-007 -7.69764 -0.0442968 -0.122096 
-1.84064 97.8705 -19.5537 -36.4278 -89.8884 -36.3136 8.64259 1.95398 -2.38835 -171.16 3.08011 94.2667 43.7702 7.03335e-006 0 -8.5353 8.66276 0.440309 40.6238 1.43051e-006 9.53674e-007 63.1684 1.82295 0.962637 12.7242 2.38419e-006 9.53674e-007 28.7808 5.85017e-006 9.49327e-006 -8.2249 1.95398 -2.59336 178.517 1.15365 87.6046 43.5653 7.27177e-006 1.77636e-015 -5.71918 -1.52842 -0.0831294 40.6238 2.38419e-006 9.53674e-007 61.7705 -1.3786 -0.688186 12.7242 -4.76837e-007 0 28.7808 1.28587e-005 2.52732e-005 0.165834 0.87714 6.61349 0.0112961 6.31716 -90.1168 7.38963 1.71661e-005 -9.72809e-008 14.2396 0.00272751 -0.00581769 11.9445 1.14441e-005 6.65395e-008 2.56866 0.0024405 -0.00593756 14.7254 4.19617e-005 8.195e-008 -19.9665 0.00442719 -0.00509405 10.9679 -9.53674e-006 5.82672e-008 0.0461615 0.0044296 -0.00508986 2.46616 -1.6653 3.69651 100.888 -18.0867 -85.3935 13.0012 0 3.55271e-015 7.09546 44.5037 -25.357 28.7848 1.52588e-005 -1.19209e-007 -5.90946 0.333767 -3.47193 26.5688 1.52588e-005 4.76837e-007 -5.37983 -0.320002 -0.0162416 8.03675 -0.886581 0.727868 -89.4039 88.9709 89.0936 2.78833 2.38419e-007 -2.84217e-014 -0.0604872 7.38885e-006 -6.00701e-007 2.41155 -1.42109e-014 1.42109e-014 -0.0639216 4.49542e-006 -7.75987e-007 7.97966 -0.886765 -1.00486 -89.3952 88.9811 89.085 2.86368 -1.42109e-014 0 -1.15742 -7.78847e-006 -3.11614e-007 2.11079 -1.42109e-014 0 2.576 -1.10766e-007 -5.91114e-007 8.03707 -0.887528 -2.60696 -88.8572 89.3579 88.547 1.84628 0 1.42109e-014 -1.14578 -2.03913e-006 1.20509e-008 1.88434 0 1.42109e-014 1.14577 2.27976e-006 -3.86331e-007 7.92262 -0.885498 2.31175 -89.423 88.9487 89.1127 2.63761 4.76837e-007 0 0.409287 1.30762e-005 0.000493759 2.16656 -2.38419e-007 0 -0.636601 -1.19723e-006 -4.40355e-007 3.4769 0.0597992 2.88789 104.364 40.5023 -88.8246 2.77686 9.72748e-005 -1.52588e-005 -7.66903 0.186174 -1.35044 2.42058 -9.15528e-005 0 -11.2634 -3.66591e-006 7.15972e-005 2.38034 -1.29275 -3.7523 -78.9297 -20.6472 94.3712 16.3182 6.10352e-005 1.19209e-007 10.3007 -41.453 -12.5795 27.0901 1.42109e-014 1.42109e-014 3.46074 42.412 -6.1854 24.5451 1.52588e-005 0 -1.55678 -0.0609253 -0.208182 9.21802 0.665817 0.545532 -91.1873 -87.8289 -89.9988 2.66255 0 0 3.40888 -5.03281e-006 0.00314027 2.2804 3.55271e-015 0 -0.95486 7.23609e-006 1.56598e-007 9.24775 0.665192 -1.1267 -91.1871 -89.4015 -89.9985 2.47041 -4.76837e-007 -1.52588e-005 2.85636 -3.25746e-006 0.00277658 2.2054 -3.55271e-015 0 -3.16844 3.79124e-006 1.13797e-007 9.35384 0.66301 -2.72332 88.8084 -89.7171 89.9969 1.63407 -4.76837e-007 -2.84217e-014 2.54481 6.53619e-006 0.00240266 1.71176 0 -2.84217e-014 -2.54482 -1.10601e-005 -9.60055e-007 8.73161 0.675903 2.06801 -91.1883 -86.1973 -89.9998 2.66689 -9.53674e-007 0 6.13104 6.76994e-006 0.00628628 2.12946 1.04308e-007 1.52588e-005 -2.04542 -8.09014e-006 -2.92422e-007 4.96735 -0.62265 3.39586 -101.949 -40.7242 -90.0694 2.15386 1.52588e-005 -2.84217e-014 10.0172 -8.04142e-006 -7.77535e-006 2.19511 -3.43323e-005 1.52588e-005 -2.66976 1.18472e-005 2.6027e-006 5.0226 -0.0266342 -9.09495e-013 1.47093 -0.00261021 0.170422 6.69364 2.86102e-005 -1.09447e-007 -8.03684 -0.0187492 -0.141974 
